<svg width="100" height="100" viewBox="0 0 100 100" fill="none" xmlns="http://www.w3.org/2000/svg">
<rect width="100" height="100" rx="50" fill="#001642"/>
<g clip-path="url(#clip0_72_43)">
<path d="M26.1547 68.1162C25.4968 67.7736 24.9466 67.258 24.5645 66.6259C24.1896 65.9709 23.9924 65.2305 23.9924 64.4773C23.9924 63.7241 24.1896 62.9837 24.5645 62.3287C24.9466 61.6966 25.4968 61.181 26.1547 60.8385C26.8538 60.4768 27.6324 60.2926 28.4208 60.3023C29.0868 60.2869 29.7483 60.4132 30.3609 60.6729C30.9141 60.9103 31.404 61.272 31.7921 61.7294L30.5596 62.8412C30.3129 62.541 30.001 62.3 29.6471 62.1362C29.2933 61.9723 28.9067 61.8899 28.5162 61.895C28.0453 61.8876 27.5802 61.9989 27.1645 62.2183C26.7736 62.4309 26.4532 62.7514 26.2422 63.1408C26.0229 63.5527 25.9082 64.0115 25.9082 64.4773C25.9082 64.9431 26.0229 65.4019 26.2422 65.8138C26.4557 66.2049 26.7825 66.5235 27.1804 66.7284C27.5941 66.954 28.0601 67.0681 28.5321 67.0596C28.9214 67.0616 29.3061 66.9761 29.6572 66.8095C30.0084 66.6429 30.3169 66.3995 30.5596 66.0977L31.7682 67.2015C31.3939 67.669 30.911 68.0396 30.3609 68.2818C29.7518 68.5345 29.0969 68.6606 28.4367 68.6523C27.6429 68.6647 26.8586 68.4804 26.1547 68.1162Z" fill="white"/>
<path d="M38.2404 66.7836H34.4557L33.7321 68.5104H31.808L35.4336 60.4363H37.2942L40.9358 68.5104H38.956L38.2404 66.7836ZM37.644 65.3643L36.356 62.2735L35.0599 65.3643H37.644Z" fill="white"/>
<path d="M47.1853 60.799C47.6945 61.007 48.127 61.3651 48.4242 61.8248C48.7214 62.2846 48.869 62.8238 48.8471 63.3695C48.8643 63.9256 48.7149 64.4744 48.4177 64.9464C48.1171 65.3967 47.688 65.748 47.1853 65.9557C46.5923 66.2046 45.9526 66.3255 45.3089 66.3105H43.6709V68.534H41.7865V60.4363H45.3089C45.9532 60.4237 46.5929 60.5474 47.1853 60.799ZM46.4936 64.4024C46.6348 64.2684 46.7471 64.1075 46.8239 63.9293C46.9007 63.7511 46.9402 63.5593 46.9402 63.3655C46.9402 63.1717 46.9007 62.98 46.8239 62.8018C46.7471 62.6236 46.6348 62.4626 46.4936 62.3287C46.1206 62.0612 45.6645 61.9328 45.2055 61.966H43.6709V64.7651H45.2055C45.6645 64.7982 46.1206 64.6698 46.4936 64.4024Z" fill="white"/>
<path d="M55.685 61.9659H53.0771V60.4363H60.1694V61.9659H57.5694V68.5104H55.685V61.9659Z" fill="white"/>
<path d="M66.1407 66.7836H62.3639L61.6404 68.5104H59.7083L63.3339 60.4363H65.1945L68.8361 68.5104H66.8642L66.1407 66.7836ZM65.5443 65.3643L64.2563 62.2735L62.9602 65.3643H65.5443Z" fill="white"/>
<path d="M69.6869 60.4363H71.5713V66.9886H75.682V68.5104H69.6869V60.4363Z" fill="white"/>
<path d="M50.1829 60.3022H52.0673V68.5104H50.1829V60.3022Z" fill="white"/>
<path d="M25.7969 80.5427C25.2484 80.2505 24.7917 79.814 24.4771 79.2811C24.1644 78.727 24.0002 78.1026 24.0002 77.4676C24.0002 76.8326 24.1644 76.2082 24.4771 75.6541C24.7949 75.121 25.2542 74.6846 25.8049 74.3925C26.3858 74.082 27.0374 73.9246 27.6973 73.9352C28.2058 73.9275 28.7109 74.0185 29.1841 74.2033C29.6347 74.3758 30.0379 74.6514 30.3609 75.0075L29.7089 75.6304C29.4566 75.3707 29.1522 75.1663 28.8152 75.0304C28.4783 74.8946 28.1164 74.8304 27.7529 74.842C27.2617 74.8369 26.7773 74.9564 26.3456 75.1889C25.9338 75.3981 25.5894 75.7177 25.3517 76.1114C25.1169 76.5255 24.9936 76.9926 24.9936 77.4676C24.9936 77.9427 25.1169 78.4097 25.3517 78.8238C25.5764 79.2299 25.9165 79.5617 26.3297 79.7779C26.7614 80.0104 27.2458 80.1298 27.737 80.1248C28.1035 80.1318 28.4674 80.0617 28.8046 79.9189C29.1417 79.7762 29.4445 79.5642 29.693 79.2969L30.345 79.9198C30.0248 80.2682 29.6274 80.5382 29.1841 80.7083C28.7069 80.8994 28.1959 80.9932 27.6814 80.9843C27.0255 80.9987 26.3769 80.8468 25.7969 80.5427Z" fill="white"/>
<path d="M37.3578 80.5427C36.8093 80.2505 36.3526 79.814 36.0379 79.2811C35.7252 78.727 35.5611 78.1026 35.5611 77.4676C35.5611 76.8326 35.7252 76.2082 36.0379 75.6541C36.3557 75.121 36.815 74.6846 37.3657 74.3925C37.9467 74.082 38.5983 73.9246 39.2581 73.9352C39.7666 73.9275 40.2717 74.0185 40.745 74.2033C41.1883 74.3734 41.5857 74.6433 41.9058 74.9918L41.2538 75.6147C41.0015 75.3549 40.6971 75.1505 40.3602 75.0147C40.0233 74.8789 39.6614 74.8146 39.2979 74.8262C38.8065 74.8201 38.3218 74.9396 37.8905 75.1731C37.4803 75.3933 37.1413 75.7241 36.9125 76.1272C36.6778 76.5413 36.5545 77.0083 36.5545 77.4834C36.5545 77.9584 36.6778 78.4255 36.9125 78.8396C37.1373 79.2457 37.4773 79.5775 37.8905 79.7936C38.3218 80.0272 38.8065 80.1466 39.2979 80.1406C39.6643 80.1471 40.028 80.0767 40.3651 79.934C40.7022 79.7913 41.0051 79.5796 41.2538 79.3127L41.9058 79.9356C41.5857 80.284 41.1883 80.5539 40.745 80.7241C40.1995 80.9331 39.6156 81.025 39.0318 80.9937C38.4479 80.9624 37.8773 80.8087 37.3578 80.5427Z" fill="white"/>
<path d="M61.8948 80.9212V75.8907L59.3743 80.0854H58.9211L56.4006 75.9143V80.9212H55.4465V73.9825H56.2416L59.1517 78.8396L62.03 73.9825H62.8251V80.8897L61.8948 80.9212Z" fill="white"/>
<path d="M73.893 79.1944H70.1878L69.3927 80.9212H68.3988L71.5792 74.014H72.5651L75.7456 80.9212H74.6642L73.893 79.1944ZM73.5431 78.4059L72.0404 75.0233L70.5376 78.4059H73.5431Z" fill="white"/>
<path d="M47.8532 73.9825H48.8471V80.9212H47.8532V73.9825Z" fill="white"/>
<path d="M75.9921 70.8207H24.3658V71.4672H75.9921V70.8207Z" fill="white"/>
<path d="M64.9798 38.0039V44.0201C64.9795 44.2841 64.9049 44.5427 64.7644 44.767C64.6239 44.9913 64.4232 45.1722 64.1847 45.2896L51.2801 51.7867C51.0779 51.8879 50.8546 51.9406 50.6281 51.9406C50.4017 51.9406 50.1783 51.8879 49.9762 51.7867L37.0636 45.3053C36.8257 45.1873 36.6255 45.0061 36.4851 44.782C36.3448 44.5579 36.2698 44.2997 36.2685 44.0359V36.6556L39.6318 34.4321C39.7144 34.3819 39.8093 34.3553 39.9061 34.3553C40.0029 34.3553 40.0979 34.3819 40.1804 34.4321L54.9376 44.2014C55.3016 44.4412 55.7381 44.5486 56.1729 44.5055C56.6077 44.4624 57.014 44.2714 57.3229 43.9649L64.1529 37.1918L64.9798 38.0039Z" fill="white"/>
<path d="M64.1688 25.8849L64.9639 26.6734V34.9525H61.8868L62.682 35.741L56.2257 42.1513C56.1455 42.2311 56.0399 42.281 55.9269 42.2925C55.8139 42.3039 55.7004 42.2764 55.6055 42.2144L43.5835 34.2507L50.159 29.9062C50.2386 29.8519 50.3328 29.8229 50.4294 29.8229C50.5259 29.8229 50.6202 29.8519 50.6997 29.9062L55.6691 33.1863C55.8543 33.3094 56.0769 33.3649 56.2987 33.3433C56.5206 33.3218 56.7281 33.2244 56.8856 33.068L64.1688 25.8849Z" fill="white"/>
<path d="M64.9798 22.9833V23.5904H61.8869L62.7217 24.4184L56.3609 30.7262C56.283 30.8015 56.1819 30.8487 56.0737 30.8601C55.9656 30.8716 55.8567 30.8466 55.7645 30.7893L51.5107 27.9744C51.1995 27.7663 50.8326 27.6551 50.4572 27.6551C50.0818 27.6551 49.7149 27.7663 49.4037 27.9744L41.7627 33.0286L40.9676 32.5082C40.6563 32.3001 40.2895 32.1889 39.9141 32.1889C39.5387 32.1889 39.1718 32.3001 38.8606 32.5082L36.2765 34.2113V22.9833C36.2765 22.7959 36.3137 22.6103 36.386 22.4372C36.4583 22.264 36.5643 22.1067 36.698 21.9742C36.9679 21.7065 37.3339 21.5562 37.7156 21.5562H63.5407C63.8067 21.5574 64.0672 21.6318 64.2931 21.771C64.5191 21.9101 64.7018 22.1087 64.8208 22.3446C64.9241 22.542 64.9786 22.7609 64.9798 22.9833Z" fill="white"/>
<path d="M65.7113 18H35.545C34.7858 18 34.0577 18.2991 33.5209 18.8314C32.9841 19.3638 32.6826 20.0858 32.6826 20.8386V45.2816C32.6833 45.8096 32.8325 46.3269 33.1134 46.7755C33.3943 47.224 33.7958 47.5859 34.2728 47.8206L49.3798 55.3269C49.7783 55.5253 50.218 55.6286 50.6639 55.6286C51.1098 55.6286 51.5495 55.5253 51.948 55.3269L67.055 47.8206C67.5326 47.5866 67.9346 47.2249 68.2156 46.7762C68.4966 46.3275 68.6455 45.8098 68.6453 45.2816V20.8386C68.6454 20.4598 68.569 20.0848 68.4207 19.7357C68.2724 19.3866 68.0552 19.0704 67.7817 18.8059C67.5083 18.5414 67.1843 18.3338 66.8287 18.1954C66.4731 18.057 66.0932 17.9906 65.7113 18ZM67.3731 44.706C67.3755 45.1417 67.2564 45.5696 67.0292 45.9425C66.8019 46.3154 66.4751 46.6188 66.085 46.8192L51.7731 54.2152C51.431 54.3934 51.0503 54.4865 50.6639 54.4865C50.2775 54.4865 49.8968 54.3934 49.5547 54.2152L35.2428 46.8192C34.8527 46.6188 34.526 46.3154 34.2987 45.9425C34.0714 45.5696 33.9524 45.1417 33.9547 44.706V21.564C33.9547 20.9366 34.2061 20.335 34.6534 19.8914C35.1007 19.4477 35.7074 19.1985 36.3401 19.1985H64.9719C65.3578 19.1979 65.7381 19.2901 66.0801 19.4673C66.4222 19.6444 66.7158 19.9012 66.9358 20.2157C67.2114 20.6121 67.3584 21.0825 67.3572 21.564L67.3731 44.706Z" fill="white"/>
</g>
<defs>
<clipPath id="clip0_72_43">
<rect width="52" height="63" fill="white" transform="translate(24 18)"/>
</clipPath>
</defs>
</svg>
