<svg width="100" height="100" viewBox="0 0 100 100" fill="none" xmlns="http://www.w3.org/2000/svg">
<rect width="100" height="100" rx="50" fill="#001642"/>
<g clip-path="url(#clip0_73_125)">
<path d="M21.6167 69.7307C21.7811 69.3706 22.0465 69.0665 22.3805 68.8557C22.7106 68.6521 23.0914 68.5465 23.4787 68.5513C23.9256 68.5382 24.3659 68.6621 24.7411 68.9064C25.0933 69.1471 25.3641 69.49 25.5175 69.8892H27.127C26.9538 69.0895 26.5071 68.376 25.8646 67.8728C25.1865 67.358 24.3535 67.0918 23.504 67.1183C22.8208 67.1054 22.1468 67.2785 21.5536 67.6192C20.9949 67.9508 20.5434 68.4374 20.2533 69.0205C20.029 69.4603 19.8857 69.9372 19.8304 70.4282H21.4021C21.4411 70.1868 21.5133 69.9521 21.6167 69.7307Z" fill="white"/>
<path d="M24.7474 73.2056C24.373 73.4521 23.9326 73.5782 23.485 73.567C23.0967 73.5723 22.7152 73.4644 22.3868 73.2563C22.0545 73.0464 21.7893 72.7448 21.623 72.3876C21.5097 72.138 21.4332 71.8731 21.3958 71.6013H19.8178C19.8684 72.1231 20.0161 72.6308 20.2533 73.0978C20.5468 73.6773 21.0005 74.1594 21.5599 74.4864C22.1502 74.8287 22.8226 75.0019 23.504 74.9874C24.3578 75.0168 25.1964 74.7553 25.8836 74.2455C26.5265 73.74 26.9731 73.0244 27.1459 72.2227H25.5238C25.3705 72.622 25.0996 72.9648 24.7474 73.2056Z" fill="white"/>
<path d="M33.8429 67.6002C34.4286 67.9322 34.908 68.4249 35.2252 69.0206C35.5568 69.6496 35.7302 70.3506 35.7302 71.0623C35.7302 71.7741 35.5568 72.4751 35.2252 73.1041C34.9036 73.6933 34.4249 74.1808 33.8429 74.5118C33.2493 74.8524 32.576 75.0275 31.8925 75.0191C31.2071 75.0268 30.5319 74.8517 29.9358 74.5118C29.3565 74.1771 28.8787 73.6905 28.5535 73.1041C28.2219 72.4751 28.0485 71.7741 28.0485 71.0623C28.0485 70.3506 28.2219 69.6496 28.5535 69.0206C28.8771 68.4345 29.3554 67.9496 29.9358 67.6192C30.5307 67.2826 31.2035 67.1098 31.8862 67.1183C32.5695 67.101 33.245 67.2674 33.8429 67.6002ZM30.6869 68.824C30.3418 69.0325 30.0635 69.3362 29.8853 69.699C29.6939 70.12 29.5948 70.5774 29.5948 71.0401C29.5948 71.5029 29.6939 71.9603 29.8853 72.3813C30.0635 72.7441 30.3418 73.0478 30.6869 73.2563C31.0495 73.4601 31.4581 73.5671 31.8736 73.5671C32.2891 73.5671 32.6976 73.4601 33.0602 73.2563C33.4049 73.0491 33.6814 72.7449 33.8555 72.3813C34.0469 71.9603 34.146 71.5029 34.146 71.0401C34.146 70.5774 34.0469 70.12 33.8555 69.699C33.6814 69.3354 33.4049 69.0312 33.0602 68.824C32.6976 68.6202 32.2891 68.5131 31.8736 68.5131C31.4581 68.5131 31.0495 68.6202 30.6869 68.824Z" fill="white"/>
<path d="M43.3928 74.9239H41.859L38.419 69.6546V74.9049H36.8852V67.2007H38.419L41.859 72.4954V67.2007H43.3928V74.9239Z" fill="white"/>
<path d="M49.7678 73.8967C49.5746 74.2499 49.2828 74.5386 48.9283 74.7274C48.4928 74.9416 48.0118 75.0461 47.5271 75.0317C47.0149 75.0353 46.5076 74.9317 46.0375 74.7274C45.6302 74.5541 45.2755 74.2764 45.0086 73.9221C44.7485 73.5647 44.5952 73.1401 44.5668 72.6983H46.2016C46.2351 72.9873 46.3666 73.256 46.574 73.4592C46.6892 73.5659 46.8245 73.6484 46.9719 73.7017C47.1194 73.7551 47.2759 73.7783 47.4324 73.7699C47.5652 73.7792 47.6984 73.7615 47.8242 73.7179C47.95 73.6743 48.0658 73.6057 48.1646 73.5162C48.3307 73.3474 48.4237 73.1195 48.4234 72.8822C48.4325 72.6659 48.3578 72.4546 48.2151 72.2925C48.0693 72.1297 47.8907 72 47.6912 71.912C47.4829 71.8169 47.1926 71.7091 46.8202 71.5823C46.417 71.4551 46.0244 71.2961 45.6461 71.1067C45.3363 70.9473 45.0698 70.7145 44.8698 70.4282C44.6421 70.0811 44.5294 69.6705 44.5479 69.2552C44.5357 68.9561 44.594 68.6585 44.7179 68.3863C44.8419 68.1142 45.028 67.8752 45.2611 67.6889C45.8056 67.2798 46.4757 67.0756 47.1547 67.1119C47.8513 67.0753 48.5387 67.2839 49.0988 67.7016C49.335 67.8951 49.5295 68.1349 49.6706 68.4063C49.8117 68.6778 49.8963 68.9752 49.9193 69.2805H48.2593C48.2226 69.0184 48.0979 68.7768 47.9058 68.5957C47.6943 68.4081 47.4174 68.3123 47.1358 68.3294C46.8888 68.3147 46.6455 68.3939 46.4541 68.5513C46.3657 68.6305 46.296 68.7285 46.2501 68.8382C46.2043 68.9479 46.1834 69.0665 46.189 69.1854C46.1821 69.3925 46.2544 69.5944 46.3909 69.7497C46.5331 69.9078 46.7075 70.0332 46.9022 70.1175C47.1776 70.24 47.4601 70.3459 47.748 70.4346C48.1508 70.5735 48.5449 70.7366 48.9283 70.9228C49.2449 71.0802 49.5164 71.3159 49.7173 71.6076C49.9598 71.9657 50.0815 72.3924 50.0645 72.8251C50.0643 73.2027 49.9617 73.5732 49.7678 73.8967Z" fill="white"/>
<path d="M56.4206 67.2007V68.4308H54.2935V74.9239H52.7597V68.4308H50.6515V67.2007H56.4206Z" fill="white"/>
<path d="M61.2681 74.9239L59.4755 71.9183H58.8002V74.9239H57.2664V67.2007H60.1951C60.9303 67.1431 61.6596 67.3699 62.2338 67.8348C62.4664 68.0554 62.6492 68.3234 62.7701 68.6209C62.8909 68.9184 62.947 69.2385 62.9345 69.5595C62.9534 70.0896 62.7833 70.609 62.4547 71.0243C62.0921 71.4411 61.597 71.7189 61.0535 71.8105L62.9471 74.8986L61.2681 74.9239ZM58.8002 70.8531H60.0625C60.9399 70.8531 61.3817 70.4663 61.3817 69.6863C61.3915 69.527 61.368 69.3673 61.3125 69.2177C61.2571 69.068 61.171 68.9318 61.0598 68.8176C60.7803 68.5877 60.4225 68.4762 60.0625 68.5069H58.8002V70.8531Z" fill="white"/>
<path d="M65.4529 67.2007V71.7281C65.4175 72.2149 65.5563 72.6983 65.8442 73.0914C66.1558 73.3815 66.565 73.5427 66.9898 73.5427C67.4147 73.5427 67.8239 73.3815 68.1355 73.0914C68.4234 72.6983 68.5622 72.2149 68.5268 71.7281V67.2007H70.0543V71.7281C70.0747 72.3545 69.938 72.9759 69.6566 73.5353C69.413 74.0083 69.0292 74.3938 68.5584 74.6386C68.0625 74.8857 67.5149 75.0096 66.9614 75C66.5564 75.0188 66.1518 74.9549 65.7721 74.8121C65.3924 74.6693 65.0455 74.4507 64.7523 74.1694C64.4598 73.8381 64.236 73.4516 64.094 73.0324C63.952 72.6132 63.8947 72.1698 63.9254 71.7281V67.2007H65.4529Z" fill="white"/>
<path d="M77.597 67.2007L74.9902 72.2227V74.9239H73.4501V72.2227L70.8369 67.2007H72.598L74.2327 70.5804L75.8612 67.2007H77.597Z" fill="white"/>
<path d="M82.6718 70.4282H78.4175V71.6076H82.6718V70.4282Z" fill="white"/>
<path d="M83 73.6874H78.4175V74.9239H83V73.6874Z" fill="white"/>
<path d="M83 67.2007H78.4175V68.4245H83V67.2007Z" fill="white"/>
<path d="M83.0126 24H49.1619C52.7081 25.973 55.6752 28.8487 57.765 32.3383H83.0126V24Z" fill="white"/>
<path d="M49.1619 64.3599H83.0126V56.0216H57.765C55.6752 59.5112 52.7081 62.3869 49.1619 64.3599Z" fill="white"/>
<path d="M18.4481 40.0109C17.8719 42.7602 17.8719 45.5999 18.4481 48.3492H80.7656V40.0109H18.4481Z" fill="white"/>
<path d="M47.4261 51.1898C46.3348 52.6211 44.929 53.7796 43.3184 54.575C41.7078 55.3703 39.9361 55.7809 38.1414 55.7748C36.3468 55.7686 34.5778 55.3459 32.9727 54.5396C31.3675 53.7332 29.9696 52.5651 28.888 51.1264C28.568 50.7065 28.2789 50.2635 28.0233 49.8011H18.8079C18.9342 50.2514 19.073 50.6952 19.2308 51.1264C20.6472 55.001 23.2116 58.3465 26.5787 60.712C29.9458 63.0775 33.9537 64.3493 38.0625 64.3563C42.1712 64.3632 46.1834 63.1048 49.5583 60.7506C52.9333 58.3965 55.5089 55.0597 56.9381 51.1898H47.4261Z" fill="white"/>
<path d="M56.9381 37.1637H47.5965C46.4305 35.5639 44.8792 34.2877 43.088 33.4547C41.2969 32.6217 39.3245 32.2592 37.3558 32.4011C35.3871 32.5431 33.4865 33.1848 31.8321 34.2663C30.1777 35.3477 28.8238 36.8334 27.8971 38.5841H18.8079C18.9405 38.1149 19.092 37.6457 19.2561 37.1891C20.6837 33.3253 23.2542 29.993 26.6222 27.6398C29.9903 25.2866 33.9946 24.0253 38.0971 24.0253C42.1996 24.0253 46.2039 25.2866 49.572 27.6398C52.94 29.993 55.5105 33.3253 56.9381 37.1891V37.1637Z" fill="white"/>
</g>
<defs>
<clipPath id="clip0_73_125">
<rect width="65" height="51" fill="white" transform="translate(18 24)"/>
</clipPath>
</defs>
</svg>
