<svg width="16" height="21" viewBox="0 0 16 21" fill="none" xmlns="http://www.w3.org/2000/svg">
<path fill-rule="evenodd" clip-rule="evenodd" d="M15.287 16.6016C14.9037 16.2592 12.9871 14.5835 12.6497 14.3286C12.3124 14.0736 11.9981 13.906 11.5611 14.2338C11.1241 14.5617 9.92046 15.2538 9.59847 15.4505C9.27647 15.6472 8.96981 15.6035 8.58649 15.2611C7.41474 14.383 6.4155 13.3151 5.63488 12.1065C4.93683 10.9711 4.4201 9.74354 4.10158 8.46388C3.97892 7.96848 4.28558 7.80821 4.58457 7.66979C4.88356 7.53137 5.19023 7.30552 5.50455 7.13796L5.73455 6.98497C5.89301 6.85175 6.044 6.71071 6.18687 6.56242C6.28274 6.46723 6.35138 6.35032 6.38627 6.2228C6.42116 6.09528 6.42114 5.9614 6.3862 5.83389C6.3862 5.59348 6.11787 3.26218 6.01054 2.30781C5.90321 1.35343 5.48922 1.38986 5.24389 1.30972C4.99856 1.22958 4.6459 1.09116 4.33924 1.00374C4.11054 0.941451 3.87087 0.924186 3.6349 0.952998C3.39893 0.98181 3.17164 1.05609 2.96694 1.1713C2.31254 1.46459 1.73096 1.88632 1.26053 2.4087C0.790092 2.93109 0.441481 3.54227 0.237662 4.20198C0.0864209 4.68952 0.00645126 5.19451 0 5.70275C0.0155653 6.85701 0.238547 8.00025 0.65932 9.08313C0.797317 9.42554 2.25395 14.671 6.2942 17.7016C10.3345 20.7323 10.5261 20.1786 11.3848 20.3462C12.2434 20.5138 14.39 20.1349 15.08 19.2534C15.5811 18.7192 15.9016 18.0542 16 17.3447C15.9463 17.1407 15.678 16.944 15.287 16.6016Z" fill="white"/>
</svg>
