<svg width="100" height="100" viewBox="0 0 100 100" fill="none" xmlns="http://www.w3.org/2000/svg">
<rect width="100" height="100" rx="50" fill="#001642"/>
<g clip-path="url(#clip0_72_82)">
<path d="M50.4863 25.6388L73.15 48.1062L57.2051 63.913L51.0636 57.8737L51.9928 56.9526L56.9907 61.9017L57.1831 62.0925L57.37 61.9017L71.1156 48.2752L71.308 48.0844L71.1156 47.8937L50.6787 27.6719L50.4863 27.4811L50.2938 27.6719L36.9771 40.8297L36.0479 39.914L50.4863 25.6388Z" fill="white"/>
<path d="M33.9146 42.0234L34.8438 42.9446L29.8294 47.9156L29.637 48.1063L29.8294 48.2971L43.575 61.9236L43.7674 62.1144L43.9599 61.9236L63.9734 42.0398L64.9026 42.9827L43.7454 63.9349L27.8006 48.1281L33.9146 42.0234Z" fill="white"/>
<path d="M50.4862 19L69.7795 38.1262L67.0304 40.8515L66.0957 39.9249L67.7452 38.3224L67.9376 38.1317L67.7452 37.9409L50.7007 21.044L50.5082 20.8532L50.2883 21.0331L33.2438 37.93L33.0514 38.1208L33.2438 38.3115L49.8704 54.8269L48.9412 55.748L31.193 38.1262L50.4862 19Z" fill="white"/>
<path d="M50.4863 32.3158L53.0374 34.8612L50.4698 37.4067L47.9186 34.8612L50.4863 32.3158Z" fill="white"/>
<path d="M14 67.6685V67.5977H16.0014C16.302 67.5948 16.601 67.6408 16.8866 67.7339C17.121 67.8127 17.3363 67.9389 17.5189 68.1046C17.6835 68.2582 17.8145 68.4437 17.9037 68.6496C17.9853 68.844 18.0272 69.0524 18.0272 69.2628C18.0272 69.4733 17.9853 69.6817 17.9037 69.876C17.8276 70.0847 17.7011 70.2718 17.5354 70.4211C17.3407 70.5848 17.1143 70.7072 16.8701 70.7808C16.5664 70.8773 16.2487 70.9234 15.9299 70.9171C15.8144 70.9171 15.5945 70.9171 15.2756 70.868V72.9556C15.2653 73.0445 15.2752 73.1345 15.3046 73.219C15.334 73.3036 15.382 73.3806 15.4453 73.4443C15.5085 73.5081 15.5854 73.557 15.6702 73.5875C15.755 73.618 15.8456 73.6293 15.9354 73.6206V73.686H14V73.6206C14.1704 73.6226 14.336 73.5647 14.4673 73.4571C14.5345 73.3928 14.5862 73.3143 14.6186 73.2275C14.6509 73.1407 14.6631 73.0477 14.6543 72.9556V68.3444C14.6585 68.2247 14.636 68.1056 14.5883 67.9956C14.5548 67.9166 14.5019 67.8473 14.4344 67.7939C14.3738 67.7539 14.3069 67.7244 14.2364 67.7067L14.0825 67.6685H14ZM15.2811 67.8102V70.6609C15.4877 70.6997 15.6975 70.7198 15.9079 70.7209C16.2679 70.7307 16.6213 70.6235 16.9141 70.4156C17.063 70.2778 17.1778 70.1077 17.2493 69.9186C17.3209 69.7294 17.3473 69.5264 17.3264 69.3255C17.3384 68.9311 17.21 68.5452 16.9635 68.2354C16.8254 68.0854 16.6545 67.9687 16.4639 67.8941C16.2734 67.8195 16.0682 67.7889 15.8639 67.8048C15.6698 67.7906 15.4749 67.7925 15.2811 67.8102Z" fill="white"/>
<path d="M25.3978 70.6283C25.4003 71.183 25.2542 71.7285 24.9745 72.2089C24.6952 72.69 24.2957 73.0918 23.8143 73.3754C23.3148 73.6663 22.7441 73.8152 22.1649 73.806C21.5944 73.8103 21.0331 73.6642 20.5384 73.3826C20.0438 73.101 19.6335 72.6941 19.3498 72.2035C19.101 71.7737 18.9562 71.2926 18.9266 70.798C18.897 70.3034 18.9835 69.8087 19.1793 69.3528C19.3436 68.9689 19.5849 68.6221 19.8886 68.3335C20.1915 68.0473 20.5458 67.8199 20.9333 67.6631C21.3196 67.5022 21.7348 67.4207 22.1539 67.4233C23.0065 67.4075 23.8308 67.7269 24.4466 68.3117C24.7527 68.5995 24.9959 68.9464 25.1614 69.331C25.331 69.7422 25.4115 70.1842 25.3978 70.6283ZM24.6666 70.6283C24.7027 69.9724 24.5542 69.3194 24.2377 68.7423C24.0117 68.3407 23.6634 68.0202 23.2425 67.8266C22.9074 67.682 22.5468 67.6042 22.1814 67.5977C21.9107 67.5984 21.6417 67.6407 21.3841 67.7231C21.0878 67.8172 20.8145 67.9712 20.5814 68.1755C20.2894 68.4423 20.0668 68.7752 19.9326 69.1457C19.609 70.0668 19.5955 71.067 19.8941 71.9964C20.0059 72.3483 20.1935 72.6719 20.4439 72.9448C20.6687 73.1843 20.9449 73.3705 21.2522 73.4898C21.5458 73.5986 21.8569 73.654 22.1704 73.6533C22.4643 73.6518 22.756 73.6021 23.0336 73.5062C23.3305 73.3987 23.6019 73.2318 23.8308 73.0156C24.1095 72.7506 24.3205 72.4236 24.4466 72.0618C24.608 71.607 24.6825 71.1264 24.6666 70.6446V70.6283Z" fill="white"/>
<path d="M26.459 67.6849H26.3765V67.5977H28.4878C28.7835 67.5902 29.0776 67.6441 29.3511 67.7558C29.5643 67.842 29.753 67.9786 29.9009 68.1537C30.0276 68.3024 30.123 68.4747 30.1813 68.6606C30.2394 68.8366 30.2691 69.0205 30.2693 69.2057C30.2685 69.4242 30.2197 69.64 30.1263 69.8379C30.035 70.0528 29.8891 70.2405 29.7029 70.383C29.49 70.5367 29.243 70.6376 28.9827 70.6773C29.4147 70.9196 29.7662 71.2814 29.9943 71.7184L30.5442 72.645C30.6974 72.9385 30.9001 73.204 31.1435 73.4299C31.2726 73.53 31.4264 73.5939 31.5888 73.6152V73.6806H30.4947L30.3627 73.5062L30.2308 73.3263C30.2308 73.2827 30.1593 73.2228 30.1098 73.141C30.0805 73.0913 30.0475 73.0439 30.0108 72.9993L29.2796 71.8002C29.1637 71.5746 29.0176 71.3656 28.8452 71.1788C28.7205 71.0481 28.5758 70.9377 28.4164 70.8518C28.3042 70.7926 28.1837 70.7503 28.059 70.7264C27.9327 70.7171 27.8059 70.7171 27.6796 70.7264V72.9393C27.6734 73.0226 27.6849 73.1062 27.7132 73.1848C27.7416 73.2634 27.7861 73.3353 27.8441 73.3958C27.9021 73.4564 27.9722 73.5043 28.0499 73.5364C28.1276 73.5685 28.2112 73.5843 28.2954 73.5825V73.6479H26.3765V73.5825C26.4862 73.5776 26.5941 73.5537 26.6954 73.5117C26.7953 73.4707 26.8786 73.3978 26.9318 73.3045C26.9994 73.1869 27.0318 73.0527 27.0253 72.9175V68.3445C27.0353 68.2515 27.0247 68.1575 26.9943 68.0691C26.964 67.9806 26.9145 67.8997 26.8494 67.8321C26.7407 67.7391 26.6025 67.687 26.459 67.6849ZM27.6521 70.5411H28.004C28.3102 70.5526 28.6154 70.5007 28.9002 70.3885C29.114 70.299 29.2919 70.1418 29.406 69.9415C29.5176 69.7221 29.5724 69.4786 29.5655 69.2329C29.5642 68.9986 29.5156 68.767 29.4225 68.5516C29.3194 68.328 29.1533 68.1387 28.9442 68.0065C28.6698 67.8469 28.3548 67.7693 28.037 67.7831C27.9079 67.7809 27.7789 67.7919 27.6521 67.8158V70.5411Z" fill="white"/>
<path d="M40.1166 67.2979C40.0488 67.3949 39.9572 67.4734 39.8505 67.5258C39.7437 67.5782 39.6253 67.603 39.5063 67.5976H32.2321H31.9792C31.917 67.5885 31.8561 67.572 31.7978 67.5486C31.751 67.5267 31.7082 67.4973 31.6713 67.4614C31.6234 67.4169 31.5827 67.3654 31.5504 67.3088H31.4844V68.7859H31.5504C31.5434 68.6401 31.5717 68.4948 31.6329 68.362C31.6942 68.2293 31.7865 68.113 31.9022 68.0228C32.1298 67.9008 32.3859 67.8406 32.6445 67.8484H33.8596V72.9283C33.8677 73.0212 33.8552 73.1148 33.8229 73.2024C33.7906 73.2899 33.7393 73.3694 33.6727 73.4352C33.5401 73.5363 33.378 73.5917 33.2108 73.5933V73.6587H35.1517V73.5933C35.0615 73.6029 34.9702 73.5922 34.8848 73.5621C34.7993 73.532 34.7217 73.4832 34.6578 73.4194C34.5939 73.3555 34.5453 73.2782 34.5157 73.1932C34.486 73.1082 34.476 73.0177 34.4864 72.9283V67.8375H37.1805V72.9174C37.1898 73.0104 37.1779 73.1043 37.1455 73.1921C37.1131 73.2798 37.0612 73.3592 36.9936 73.4243C36.8611 73.5254 36.6989 73.5808 36.5318 73.5824V73.6478H38.4726V73.5824C38.3828 73.5911 38.2922 73.5798 38.2074 73.5493C38.1226 73.5188 38.0458 73.4699 37.9825 73.4061C37.9193 73.3424 37.8712 73.2654 37.8418 73.1808C37.8125 73.0963 37.8026 73.0063 37.8128 72.9174V67.8375H39.0224C39.2828 67.8298 39.5406 67.89 39.7702 68.0119C39.8871 68.1008 39.9799 68.217 40.0404 68.3502C40.1008 68.4833 40.127 68.6293 40.1166 68.775H40.1826V67.2979H40.1166Z" fill="white"/>
<path d="M47.2423 70.6282C47.2448 71.183 47.0987 71.7285 46.8189 72.2089C46.5397 72.69 46.1401 73.0917 45.6588 73.3754C45.1673 73.6615 44.6068 73.8103 44.0368 73.806C43.4664 73.8103 42.9051 73.6642 42.4104 73.3826C41.9157 73.101 41.5055 72.6941 41.2217 72.2035C40.973 71.7737 40.8281 71.2926 40.7985 70.798C40.769 70.3034 40.8555 69.8087 41.0513 69.3528C41.2155 68.9689 41.4568 68.6221 41.7606 68.3335C42.0635 68.0473 42.4178 67.8199 42.8052 67.6631C43.1916 67.5022 43.6068 67.4206 44.0258 67.4233C44.8595 67.4218 45.6614 67.7402 46.2636 68.3117C46.5736 68.5984 46.8207 68.9454 46.9894 69.331C47.1646 69.741 47.2508 70.183 47.2423 70.6282ZM46.511 70.6282C46.5472 69.9723 46.3987 69.3194 46.0822 68.7423C45.858 68.3393 45.5091 68.0183 45.087 67.8266C44.7519 67.682 44.3913 67.6042 44.0258 67.5977C43.7551 67.5984 43.4862 67.6407 43.2286 67.7231C42.9323 67.8172 42.659 67.9712 42.4258 68.1755C42.1339 68.4423 41.9113 68.7752 41.7771 69.1457C41.4608 70.068 41.4473 71.066 41.7386 71.9963C41.8503 72.3483 42.038 72.6719 42.2884 72.9448C42.5131 73.1842 42.7894 73.3705 43.0966 73.4898C43.3903 73.5986 43.7013 73.654 44.0148 73.6533C44.3088 73.6518 44.6005 73.6021 44.8781 73.5062C45.175 73.3987 45.4464 73.2317 45.6753 73.0156C45.9397 72.757 46.1409 72.442 46.2636 72.0945C46.4384 71.6312 46.5224 71.1391 46.511 70.6446V70.6282Z" fill="white"/>
<path d="M53.5873 73.6478H51.2945V73.5824H51.388C51.463 73.5829 51.5372 73.5681 51.6063 73.5391C51.6753 73.51 51.7376 73.4673 51.7893 73.4135C51.8484 73.3456 51.8933 73.2668 51.9217 73.1817C51.95 73.0966 51.961 73.0068 51.9543 72.9174V68.3498C51.9668 68.1696 51.912 67.9911 51.8003 67.8484C51.7471 67.7898 51.6817 67.7434 51.6086 67.7124C51.5355 67.6813 51.4565 67.6663 51.377 67.6685H51.3055V67.5976H53.2958C53.5425 67.5952 53.7879 67.6339 54.0216 67.7121C54.2226 67.7812 54.409 67.8865 54.5714 68.0228C54.7179 68.1489 54.8376 68.3027 54.9233 68.4752C55.0069 68.6449 55.0502 68.8314 55.0498 69.0203C55.0559 69.1853 55.0267 69.3498 54.9642 69.5029C54.9016 69.6561 54.8071 69.7943 54.6869 69.9087C54.4178 70.156 54.0879 70.329 53.7302 70.4102C53.9149 70.4296 54.0984 70.4587 54.28 70.4974C54.4375 70.5335 54.5905 70.5865 54.7364 70.6554C54.8733 70.7289 55.0007 70.8186 55.1158 70.9225C55.2221 71.0185 55.3146 71.1286 55.3907 71.2496C55.4651 71.3683 55.5225 71.4967 55.5611 71.6311C55.5982 71.7698 55.6167 71.9128 55.6161 72.0562C55.6245 72.3464 55.5376 72.6314 55.3687 72.8684C55.2299 73.0894 55.0418 73.2759 54.8189 73.4135C54.4347 73.5928 54.0111 73.6734 53.5873 73.6478ZM52.5866 70.3775H52.9825C53.2177 70.3918 53.4534 70.3584 53.6752 70.2793C53.7733 70.2297 53.8655 70.1694 53.9501 70.0995C54.0661 69.9999 54.1597 69.8773 54.2251 69.7397C54.3136 69.5544 54.3551 69.3505 54.346 69.1456C54.3476 68.9692 54.3179 68.7939 54.258 68.6278C54.2035 68.469 54.1175 68.3226 54.0051 68.1972C53.8966 68.0737 53.7638 67.9735 53.6147 67.9029C53.459 67.828 53.2875 67.7906 53.1144 67.7939C52.9273 67.7956 52.7417 67.8269 52.5646 67.8865L52.5866 70.3775ZM53.2079 70.5628H52.5756V72.743C52.5709 72.8663 52.5857 72.9895 52.6196 73.1082C52.6395 73.1638 52.6708 73.2148 52.7115 73.2579C52.7522 73.3011 52.8013 73.3355 52.856 73.3589C53.0439 73.4427 53.2496 73.4801 53.4553 73.468C53.6858 73.4899 53.9181 73.451 54.1286 73.3553C54.3391 73.2595 54.5203 73.1104 54.6539 72.9229C54.8146 72.6661 54.8985 72.3693 54.8958 72.0671C54.9004 71.8521 54.8591 71.6385 54.7749 71.4403C54.6988 71.2633 54.5843 71.1051 54.4395 70.977C54.2793 70.8415 54.0919 70.7412 53.8897 70.6827C53.667 70.6043 53.4331 70.562 53.1969 70.5573L53.2079 70.5628Z" fill="white"/>
<path d="M56.4078 73.5825H56.4903C56.5648 73.5815 56.6383 73.5656 56.7063 73.5356C56.7744 73.5056 56.8356 73.4622 56.8862 73.4081C57.006 73.2733 57.0673 73.0969 57.0566 72.9175V68.3499C57.0719 68.2504 57.0624 68.1487 57.0288 68.0536C56.9953 67.9586 56.9388 67.8732 56.8642 67.8049C56.7333 67.7046 56.5732 67.6491 56.4078 67.6468V67.5759H58.3597V67.6468C58.1952 67.6491 58.0356 67.7025 57.9034 67.7994C57.8282 67.8675 57.7709 67.9527 57.7364 68.0477C57.7019 68.1426 57.6913 68.2445 57.7054 68.3445V72.7595C57.694 72.8593 57.7059 72.9604 57.7402 73.0549C57.7745 73.1494 57.8304 73.2348 57.9034 73.3045C58.0985 73.4207 58.3252 73.4741 58.5521 73.4571H59.102C59.2888 73.4641 59.4753 73.4363 59.6518 73.3754C59.7814 73.3235 59.8938 73.2367 59.9762 73.1247C60.0734 72.9735 60.1544 72.8128 60.2181 72.645H60.2896L60.0587 73.6425H56.4298L56.4078 73.5825Z" fill="white"/>
<path d="M63.6545 67.5105L65.4854 72.6886C65.5507 72.8932 65.6412 73.0891 65.7548 73.2718C65.816 73.368 65.9013 73.4468 66.0023 73.5007C66.0992 73.5374 66.2011 73.5595 66.3047 73.5661V73.6315H64.3088V73.5661C64.4687 73.5717 64.6284 73.5515 64.7816 73.5062C64.8916 73.4662 64.9466 73.3626 64.9466 73.1955C64.9415 73.0668 64.9155 72.9399 64.8696 72.8194C64.8664 72.8032 64.8664 72.7865 64.8696 72.7703L64.3198 71.1679H62.1975L61.7136 72.6504C61.6566 72.8083 61.6232 72.9735 61.6147 73.141C61.6065 73.2033 61.6138 73.2666 61.6358 73.3254C61.6578 73.3843 61.694 73.437 61.7411 73.4789C61.8533 73.5416 61.9809 73.5718 62.1095 73.5661V73.6315H60.6745V73.5661C60.8619 73.5532 61.0371 73.4693 61.1638 73.3318C61.3125 73.1501 61.4228 72.9406 61.4882 72.7158L63.2092 67.5105H63.6545ZM62.269 70.9498H64.2098L63.2201 68.0774L62.269 70.9498Z" fill="white"/>
<path d="M73.2654 67.5977V67.6685C73.1394 67.6821 73.0156 67.7114 72.897 67.7557C72.8009 67.806 72.7266 67.8893 72.6881 67.9901C72.6327 68.1513 72.6085 68.3214 72.6166 68.4916V73.795H72.5726L67.8826 68.6006V72.3179C67.8797 72.5492 67.8925 72.7805 67.9211 73.0101C67.9344 73.1238 67.9718 73.2335 68.0311 73.3317C68.097 73.4117 68.1814 73.4747 68.2771 73.5155C68.3728 73.5563 68.477 73.5736 68.5809 73.5661V73.6315H67.0414V73.5661C67.1821 73.5625 67.3199 73.5251 67.4428 73.4571C67.5503 73.3662 67.6222 73.2408 67.6462 73.1028C67.6903 72.8472 67.7087 72.5879 67.7012 72.3288V68.3989L67.5033 68.1754C67.3812 68.0233 67.2344 67.8925 67.0689 67.7884C66.9411 67.731 66.8061 67.6907 66.6675 67.6685V67.5977H67.8167L72.4297 72.7212V68.8186C72.4354 68.5981 72.4225 68.3775 72.3912 68.1591C72.3751 68.0237 72.3084 67.8992 72.2043 67.8102C72.0668 67.7124 71.9005 67.6626 71.7314 67.6685V67.5977H73.2654Z" fill="white"/>
<path d="M79.5829 68.9549H79.5169C79.4635 68.6647 79.3146 68.4002 79.0935 68.2027C78.8685 67.9973 78.5998 67.8446 78.3073 67.7557C78.042 67.6643 77.7634 67.6164 77.4826 67.614C77.1402 67.6111 76.8017 67.6856 76.4929 67.8321C76.1851 67.9799 75.9132 68.1918 75.6956 68.4534C75.4627 68.7381 75.2855 69.0635 75.1733 69.4127C75.0473 69.8057 74.9842 70.2159 74.9864 70.6282C74.9828 71.0296 75.0441 71.4289 75.1678 71.811C75.2868 72.1581 75.4737 72.4785 75.7176 72.754C75.936 73.0129 76.2103 73.2197 76.5204 73.359C76.8368 73.4991 77.18 73.5698 77.5265 73.5661C77.8756 73.5578 78.221 73.4933 78.5492 73.3753C78.9257 73.2454 79.2677 73.0331 79.5499 72.754V72.9883C79.2402 73.2366 78.9004 73.4454 78.5382 73.6097C78.1763 73.7514 77.789 73.8181 77.4001 73.8059C76.9484 73.8115 76.5005 73.7223 76.086 73.5443C75.7056 73.3807 75.3632 73.1413 75.0798 72.8412C74.8048 72.5615 74.5864 72.2322 74.4365 71.871C74.2991 71.5066 74.2284 71.1208 74.2276 70.7318C74.223 70.1574 74.375 69.5924 74.6675 69.0966C74.9496 68.5999 75.3593 68.1862 75.8551 67.8975C76.3528 67.6012 76.924 67.4483 77.5046 67.456C77.8946 67.4605 78.2825 67.5136 78.6592 67.614L79.088 67.7339C79.1585 67.7497 79.2303 67.7588 79.3025 67.7612C79.3775 67.7688 79.4529 67.7515 79.5169 67.7121C79.5584 67.6636 79.5867 67.6055 79.5994 67.5432H79.6654L79.5829 68.9549Z" fill="white"/>
<path d="M87 70.6282C87.0032 71.1838 86.8551 71.7299 86.5711 72.2089C86.2956 72.691 85.8975 73.0932 85.4165 73.3754C84.925 73.6615 84.3645 73.8103 83.7945 73.806C83.2238 73.812 82.6618 73.6666 82.1668 73.3849C81.6718 73.1031 81.2619 72.6952 80.9794 72.2035C80.6947 71.7189 80.5465 71.1673 80.5506 70.6064C80.5494 70.176 80.6354 69.7497 80.8035 69.3528C80.9698 68.9686 81.2129 68.6219 81.5183 68.3335C81.8204 68.0464 82.1749 67.8189 82.5629 67.6631C82.9493 67.5022 83.3645 67.4206 83.7835 67.4233C84.196 67.4222 84.6048 67.4999 84.9876 67.6522C85.3728 67.8053 85.7253 68.0291 86.0268 68.3117C86.3329 68.5995 86.5761 68.9464 86.7416 69.331C86.9187 69.7406 87.0067 70.1826 87 70.6282ZM86.2687 70.6282C86.3049 69.9723 86.1564 69.3194 85.8399 68.7423C85.6139 68.3407 85.2655 68.0202 84.8447 67.8266C84.5094 67.6825 84.1489 67.6047 83.7835 67.5977C83.5128 67.5984 83.2439 67.6407 82.9863 67.7231C82.6888 67.8182 82.4139 67.9721 82.178 68.1755C81.8897 68.4443 81.6693 68.7766 81.5348 69.1457C81.3547 69.6228 81.2688 70.1299 81.2818 70.6391C81.2737 71.1 81.3443 71.5589 81.4908 71.9963C81.6049 72.3472 81.7922 72.6704 82.0406 72.9448C82.2634 73.1865 82.5402 73.3731 82.8488 73.4898C83.1424 73.5991 83.4535 73.6545 83.767 73.6533C84.061 73.6514 84.3526 73.6017 84.6303 73.5062C84.9498 73.3889 85.239 73.2028 85.477 72.9611C85.7247 72.705 85.9124 72.3979 86.0268 72.0618C86.193 71.6077 86.2749 71.1276 86.2687 70.6446V70.6282Z" fill="white"/>
<path d="M86.989 76.1279H14.8852L14.0055 77H86.1093L86.989 76.1279Z" fill="white"/>
</g>
<defs>
<clipPath id="clip0_72_82">
<rect width="73" height="58" fill="white" transform="translate(14 19)"/>
</clipPath>
</defs>
</svg>
